<?xml version="1.0" encoding="utf-8"?>
<!-- Generator: Adobe Illustrator 16.0.4, SVG Export Plug-In . SVG Version: 6.00 Build 0)  -->
<!DOCTYPE svg PUBLIC "-//W3C//DTD SVG 1.1//EN" "http://www.w3.org/Graphics/SVG/1.1/DTD/svg11.dtd">
<svg version="1.1" id="Layer_1" xmlns="http://www.w3.org/2000/svg" xmlns:xlink="http://www.w3.org/1999/xlink" x="0px" y="0px"
	 width="634.601px" height="489.185px" viewBox="0 0 634.601 489.185" enable-background="new 0 0 634.601 489.185"
	 xml:space="preserve">
<g>
	<g>
		<g>
			<g>
				<g>
					<g>
						<path fill="none" stroke="#000000" stroke-linejoin="round" stroke-miterlimit="10" d="M0,53.992"/>
						<path fill="none" stroke="#000000" stroke-linejoin="round" stroke-miterlimit="10" d="M4.046,0.726"/>
						<g>
							<g>
								<polygon fill="none" stroke="#000000" stroke-linejoin="round" stroke-miterlimit="10" points="218.473,371.567 
									313.906,424.403 295.717,376.414 								"/>
								<polygon fill="none" stroke="#000000" stroke-linejoin="round" stroke-miterlimit="10" points="362.234,386.104 
									406.488,451.809 421.26,371.567 								"/>
								<polygon fill="none" stroke="#000000" stroke-linejoin="round" stroke-miterlimit="10" points="295.717,376.414 
									406.488,451.809 362.234,386.104 								"/>
								<polygon fill="none" stroke="#000000" stroke-linejoin="round" stroke-miterlimit="10" points="348.002,170.258 
									304.09,242.078 358.65,258.8 								"/>
								<polygon fill="none" stroke="#000000" stroke-linejoin="round" stroke-miterlimit="10" points="304.09,242.078 
									218.473,371.567 304.09,323.553 								"/>
								<polygon fill="none" stroke="#000000" stroke-linejoin="round" stroke-miterlimit="10" points="421.26,371.567 
									494.102,489.185 470.863,339.265 								"/>
								<path fill="none" stroke="#000000" stroke-linejoin="round" stroke-miterlimit="10" d="M634.602,217.867
									c0,0-40.084,114.704-39.643,114.965l39.643-16.96"/>
								<polygon fill="none" stroke="#000000" stroke-linejoin="round" stroke-miterlimit="10" points="554.564,303.728 
									634.602,217.867 543.869,233.614 								"/>
								<polygon fill="none" stroke="#000000" stroke-linejoin="round" stroke-miterlimit="10" points="417.297,195.37 
									348.002,170.258 417.297,263.203 								"/>
								<polygon fill="none" stroke="#000000" stroke-linejoin="round" stroke-miterlimit="10" points="438.488,133.536 
									348.002,170.258 417.297,195.37 								"/>
								
									<line fill="none" stroke="#000000" stroke-linejoin="round" stroke-miterlimit="10" x1="533.139" y1="128.686" x2="577.082" y2="181.874"/>
								<polyline fill="none" stroke="#000000" stroke-linejoin="round" stroke-miterlimit="10" points="634.602,104.342 
									577.082,181.874 634.602,217.867 								"/>
								<polygon fill="none" stroke="#000000" stroke-linejoin="round" stroke-miterlimit="10" points="543.869,233.614 
									533.139,128.686 470.863,212.143 								"/>
								<polyline fill="none" stroke="#000000" stroke-linejoin="round" stroke-miterlimit="10" points="530.033,58.975 
									571.686,10.988 494.102,0.241 								"/>
								<polygon fill="none" stroke="#000000" stroke-linejoin="round" stroke-miterlimit="10" points="213.581,414.434 
									138.326,435.485 153.973,489.185 229.199,448.206 								"/>
								<polygon fill="none" stroke="#000000" stroke-linejoin="round" stroke-miterlimit="10" points="369.768,58.336 
									369.768,58.336 318.875,43.321 318.875,43.321 286.908,64.2 330.078,99.772 								"/>
								<polygon fill="none" stroke="#000000" stroke-linejoin="round" stroke-miterlimit="10" points="286.908,64.2 
									227.882,72.907 182.947,146.469 								"/>
								<polygon fill="none" stroke="#000000" stroke-linejoin="round" stroke-miterlimit="10" points="330.078,99.772 
									286.908,64.2 256.951,137.219 								"/>
								<polygon fill="none" stroke="#000000" stroke-linejoin="round" stroke-miterlimit="10" points="530.033,58.975 
									395.141,92.282 438.488,133.536 								"/>
								<polygon fill="none" stroke="#000000" stroke-linejoin="round" stroke-miterlimit="10" points="634.602,55.307 
									530.033,58.975 533.139,128.686 								"/>
								<polygon fill="none" stroke="#000000" stroke-linejoin="round" stroke-miterlimit="10" points="236.25,274.657 
									236.102,269.695 235.371,270.25 164.883,315.627 218.473,371.567 								"/>
								<polygon fill="none" stroke="#000000" stroke-linejoin="round" stroke-miterlimit="10" points="236.102,269.695 
									234.044,201.973 164.883,315.627 235.371,270.25 								"/>
								<polygon fill="none" stroke="#000000" stroke-linejoin="round" stroke-miterlimit="10" points="123.039,380.661 
									138.326,435.485 213.581,414.434 								"/>
								<polygon fill="none" stroke="#000000" stroke-linejoin="round" stroke-miterlimit="10" points="150.348,98.895 
									132.733,125.327 182.947,146.469 								"/>
								<polygon fill="none" stroke="#000000" stroke-linejoin="round" stroke-miterlimit="10" points="313.906,424.403 
									218.473,371.567 123.039,380.661 213.581,414.434 								"/>
								<polygon fill="none" stroke="#000000" stroke-linejoin="round" stroke-miterlimit="10" points="132.733,125.327 
									92.973,148.013 141.542,178.738 								"/>
								<polygon fill="none" stroke="#000000" stroke-linejoin="round" stroke-miterlimit="10" points="182.947,146.469 
									132.733,125.327 141.542,178.738 								"/>
								<polygon fill="none" stroke="#000000" stroke-linejoin="round" stroke-miterlimit="10" points="113.12,233.614 
									141.542,178.738 72.825,225.86 								"/>
								<polygon fill="none" stroke="#000000" stroke-linejoin="round" stroke-miterlimit="10" points="92.973,148.013 
									58.557,156.873 72.825,225.86 72.825,225.86 								"/>
								<polygon fill="none" stroke="#000000" stroke-linejoin="round" stroke-miterlimit="10" points="201.447,188.319 
									234.044,201.973 256.951,137.219 								"/>
								<polygon fill="none" stroke="#000000" stroke-linejoin="round" stroke-miterlimit="10" points="141.542,178.738 
									179.896,225.86 201.447,188.319 								"/>
								<polygon fill="none" stroke="#000000" stroke-linejoin="round" stroke-miterlimit="10" points="179.896,225.86 
									234.044,201.973 201.447,188.319 								"/>
								<polygon fill="none" stroke="#000000" stroke-linejoin="round" stroke-miterlimit="10" points="456.207,253.62 
									470.863,339.265 500.945,294.481 								"/>
								<polygon fill="none" stroke="#000000" stroke-linejoin="round" stroke-miterlimit="10" points="256.951,137.219 
									234.044,201.973 304.09,242.078 								"/>
								<polygon fill="none" stroke="#000000" stroke-linejoin="round" stroke-miterlimit="10" points="68.289,323.553 
									164.883,315.627 81.186,266.289 								"/>
								<polygon fill="none" stroke="#000000" stroke-linejoin="round" stroke-miterlimit="10" points="229.199,448.206 
									353.576,489.022 313.906,424.403 								"/>
								<polygon fill="none" stroke="#000000" stroke-linejoin="round" stroke-miterlimit="10" points="455.357,252.841 
									456.207,253.62 456.291,252.641 								"/>
								<polygon fill="none" stroke="#000000" stroke-linejoin="round" stroke-miterlimit="10" points="456.291,252.641 
									456.504,249.985 470.863,212.143 417.297,195.37 417.297,263.203 455.357,252.841 								"/>
								<polygon fill="none" stroke="#000000" stroke-linejoin="round" stroke-miterlimit="10" points="421.26,371.567 
									470.863,339.265 417.297,263.203 								"/>
								<polygon fill="none" stroke="#000000" stroke-linejoin="round" stroke-miterlimit="10" points="456.291,252.641 
									543.869,233.614 470.863,212.143 456.504,249.985 								"/>
								<polygon fill="none" stroke="#000000" stroke-linejoin="round" stroke-miterlimit="10" points="304.09,323.553 
									421.26,371.567 358.65,258.8 								"/>
								<polygon fill="none" stroke="#000000" stroke-linejoin="round" stroke-miterlimit="10" points="455.357,252.841 
									417.297,263.203 470.863,339.265 456.207,253.62 								"/>
								<polygon fill="none" stroke="#000000" stroke-linejoin="round" stroke-miterlimit="10" points="295.717,376.414 
									362.234,386.104 304.09,323.553 								"/>
								<polyline fill="none" stroke="#000000" stroke-linejoin="round" stroke-miterlimit="10" points="0,385.667 68.289,323.553 
									0,315.627 								"/>
								<polygon fill="none" stroke="#000000" stroke-linejoin="round" stroke-miterlimit="10" points="38.525,115.629 0,217.867 
									58.557,156.873 								"/>
								<polygon fill="none" stroke="#000000" stroke-linejoin="round" stroke-miterlimit="10" points="164.883,315.627 0,385.667 
									123.039,380.661 								"/>
								<polygon fill="none" stroke="#000000" stroke-linejoin="round" stroke-miterlimit="10" points="72.825,225.86 0,217.867 
									81.186,266.289 								"/>
								<polyline fill="none" stroke="#000000" stroke-linejoin="round" stroke-miterlimit="10" points="0,315.627 81.186,266.289 
									0,217.867 								"/>
								<polygon fill="none" stroke="#000000" stroke-linejoin="round" stroke-miterlimit="10" points="262.916,0 191.524,24.292 
									227.882,72.907 								"/>
								<polygon fill="none" stroke="#000000" stroke-linejoin="round" stroke-miterlimit="10" points="150.348,98.895 
									191.524,24.292 141.542,45.598 								"/>
								<polygon fill="none" stroke="#000000" stroke-linejoin="round" stroke-miterlimit="10" points="191.524,24.292 
									153.973,0.162 141.542,45.598 								"/>
								<polygon fill="none" stroke="#000000" stroke-linejoin="round" stroke-miterlimit="10" points="0,55.307 38.525,115.629 
									141.542,45.598 								"/>
								<polygon fill="none" stroke="#000000" stroke-linejoin="round" stroke-miterlimit="10" points="141.542,45.598 
									38.525,115.629 150.348,98.895 								"/>
								<polygon fill="none" stroke="#000000" stroke-linejoin="round" stroke-miterlimit="10" points="634.602,385.667 
									594.959,332.832 522.914,371.567 601.283,394.324 								"/>
								<polygon fill="none" stroke="#000000" stroke-linejoin="round" stroke-miterlimit="10" points="500.945,294.481 
									522.914,371.567 554.564,303.728 								"/>
								<polygon fill="none" stroke="#000000" stroke-linejoin="round" stroke-miterlimit="10" points="470.863,339.265 
									522.914,371.567 500.945,294.481 								"/>
								<polyline fill="none" stroke="#000000" stroke-linejoin="round" stroke-miterlimit="10" points="522.914,371.567 
									557.135,431.744 601.283,394.324 								"/>
								<polygon fill="none" stroke="#000000" stroke-linejoin="round" stroke-miterlimit="10" points="395.141,92.282 
									411.85,16.768 369.768,58.336 								"/>
								<path fill="none" stroke="#000000" stroke-linejoin="round" stroke-miterlimit="10" d="M606.672,376.146"/>
								<g>
									<polygon fill="none" stroke="#000000" stroke-linejoin="round" stroke-miterlimit="10" points="304.09,323.553 
										218.473,371.567 295.717,376.414 									"/>
									<polygon fill="none" stroke="#000000" stroke-linejoin="round" stroke-miterlimit="10" points="522.914,371.567 
										494.102,489.185 557.135,431.744 									"/>
									<polygon fill="none" stroke="#000000" stroke-linejoin="round" stroke-miterlimit="10" points="634.602,55.307 
										571.686,10.988 530.033,58.975 									"/>
									<polygon fill="none" stroke="#000000" stroke-linejoin="round" stroke-miterlimit="10" points="533.139,128.686 
										438.488,133.536 470.863,212.143 									"/>
									<polygon fill="none" stroke="#000000" stroke-linejoin="round" stroke-miterlimit="10" points="369.768,58.336 
										369.768,58.336 411.85,16.768 318.875,43.321 318.875,43.321 									"/>
									<polygon fill="none" stroke="#000000" stroke-linejoin="round" stroke-miterlimit="10" points="256.951,137.219 
										286.908,64.2 182.947,146.469 									"/>
									<polygon fill="none" stroke="#000000" stroke-linejoin="round" stroke-miterlimit="10" points="227.882,72.907 
										150.348,98.895 182.947,146.469 									"/>
									<polygon fill="none" stroke="#000000" stroke-linejoin="round" stroke-miterlimit="10" points="304.09,242.078 
										348.002,170.258 395.141,92.282 327.432,138.982 									"/>
									<polygon fill="none" stroke="#000000" stroke-linejoin="round" stroke-miterlimit="10" points="113.12,233.614 
										164.883,315.627 141.542,178.738 									"/>
									<polygon fill="none" stroke="#000000" stroke-linejoin="round" stroke-miterlimit="10" points="72.825,225.86 
										72.825,225.86 81.186,266.289 113.12,233.614 									"/>
									<polygon fill="none" stroke="#000000" stroke-linejoin="round" stroke-miterlimit="10" points="213.581,414.434 
										229.199,448.206 313.906,424.403 									"/>
									<polygon fill="none" stroke="#000000" stroke-linejoin="round" stroke-miterlimit="10" points="234.044,201.973 
										236.102,269.695 304.09,242.078 									"/>
									<polygon fill="none" stroke="#000000" stroke-linejoin="round" stroke-miterlimit="10" points="554.564,303.728 
										543.869,233.614 500.945,294.481 									"/>
									<polygon fill="none" stroke="#000000" stroke-linejoin="round" stroke-miterlimit="10" points="358.65,258.8 
										421.26,371.567 417.297,263.203 									"/>
									<polygon fill="none" stroke="#000000" stroke-linejoin="round" stroke-miterlimit="10" points="123.039,380.661 0,385.667 
										88.742,448.205 138.326,435.485 									"/>
								</g>
								<g>
									<polygon fill="none" stroke="#000000" stroke-linejoin="round" stroke-miterlimit="10" points="358.65,258.8 
										304.09,242.078 304.09,323.553 									"/>
									<polygon fill="none" stroke="#000000" stroke-linejoin="round" stroke-miterlimit="10" points="406.488,451.809 
										494.102,489.185 421.26,371.567 									"/>
									<path fill="none" stroke="#000000" stroke-linejoin="round" stroke-miterlimit="10" d="M594.959,332.832
										c-0.441-0.261,39.643-114.965,39.643-114.965l-80.037,85.86L594.959,332.832z"/>
									<polygon fill="none" stroke="#000000" stroke-linejoin="round" stroke-miterlimit="10" points="577.082,181.874 
										533.139,128.686 543.869,233.614 									"/>
									<polygon fill="none" stroke="#000000" stroke-linejoin="round" stroke-miterlimit="10" points="256.951,137.219 
										327.432,138.982 395.141,92.282 330.078,99.772 									"/>
									<polygon fill="none" stroke="#000000" stroke-linejoin="round" stroke-miterlimit="10" points="438.488,133.536 
										395.141,92.282 348.002,170.258 									"/>
									<polygon fill="none" stroke="#000000" stroke-linejoin="round" stroke-miterlimit="10" points="141.542,178.738 
										164.883,315.627 179.896,225.86 									"/>
									<polygon fill="none" stroke="#000000" stroke-linejoin="round" stroke-miterlimit="10" points="141.542,178.738 
										92.973,148.013 72.825,225.86 									"/>
									<polygon fill="none" stroke="#000000" stroke-linejoin="round" stroke-miterlimit="10" points="530.033,58.975 
										494.102,0.241 395.141,92.282 									"/>
									<polygon fill="none" stroke="#000000" stroke-linejoin="round" stroke-miterlimit="10" points="68.289,323.553 0,385.667 
										164.883,315.627 									"/>
									<polygon fill="none" stroke="#000000" stroke-linejoin="round" stroke-miterlimit="10" points="227.882,72.907 
										191.524,24.292 150.348,98.895 									"/>
									<polygon fill="none" stroke="#000000" stroke-linejoin="round" stroke-miterlimit="10" points="138.326,435.485 
										88.742,448.205 153.973,489.185 									"/>
								</g>
								<g>
									<polygon fill="none" stroke="#000000" stroke-linejoin="round" stroke-miterlimit="10" points="313.906,424.403 
										353.576,489.022 406.488,451.809 295.717,376.414 									"/>
									<polygon fill="none" stroke="#000000" stroke-linejoin="round" stroke-miterlimit="10" points="470.863,212.143 
										438.488,133.536 417.297,195.37 									"/>
									<polygon fill="none" stroke="#000000" stroke-linejoin="round" stroke-miterlimit="10" points="179.896,225.86 
										164.883,315.627 234.044,201.973 									"/>
									<polygon fill="none" stroke="#000000" stroke-linejoin="round" stroke-miterlimit="10" points="470.863,339.265 
										494.102,489.185 522.914,371.567 									"/>
									<polygon fill="none" stroke="#000000" stroke-linejoin="round" stroke-miterlimit="10" points="256.951,137.219 
										182.947,146.469 141.542,178.738 201.447,188.319 									"/>
									
										<line fill="none" stroke="#000000" stroke-linejoin="round" stroke-miterlimit="10" x1="533.139" y1="128.686" x2="634.602" y2="104.342"/>
									<polygon fill="none" stroke="#000000" stroke-linejoin="round" stroke-miterlimit="10" points="58.557,156.873 0,217.867 
										72.825,225.86 									"/>
									<polyline fill="none" stroke="#000000" stroke-linejoin="round" stroke-miterlimit="10" points="68.289,323.553 
										81.186,266.289 0,315.627 									"/>
									
										<line fill="none" stroke="#000000" stroke-linejoin="round" stroke-miterlimit="10" x1="0.001" y1="0.241" x2="141.542" y2="45.598"/>
									<path fill="none" stroke="#000000" stroke-linejoin="round" stroke-miterlimit="10" d="M395.141,92.282"/>
									<polyline fill="none" stroke="#000000" stroke-linejoin="round" stroke-miterlimit="10" points="494.102,0.241 
										411.85,16.768 353.576,0 318.875,43.321 									"/>
								</g>
								<g>
									<polygon fill="none" stroke="#000000" stroke-linejoin="round" stroke-miterlimit="10" points="164.883,315.627 
										123.039,380.661 218.473,371.567 									"/>
									<polygon fill="none" stroke="#000000" stroke-linejoin="round" stroke-miterlimit="10" points="81.186,266.289 
										164.883,315.627 113.12,233.614 									"/>
									<polygon fill="none" stroke="#000000" stroke-linejoin="round" stroke-miterlimit="10" points="456.207,253.62 
										500.945,294.481 543.869,233.614 456.291,252.641 									"/>
									<polygon fill="none" stroke="#000000" stroke-linejoin="round" stroke-miterlimit="10" points="236.102,269.695 
										236.25,274.657 218.473,371.567 304.09,242.078 									"/>
									<polygon fill="none" stroke="#000000" stroke-linejoin="round" stroke-miterlimit="10" points="92.973,148.013 
										132.733,125.327 38.525,115.629 58.557,156.873 									"/>
									<polygon fill="none" stroke="#000000" stroke-linejoin="round" stroke-miterlimit="10" points="286.908,64.2 262.916,0 
										227.882,72.907 									"/>
								</g>
								<polygon fill="none" stroke="#000000" stroke-linejoin="round" stroke-miterlimit="10" points="318.875,43.321 353.576,0 
									262.916,0 286.908,64.2 								"/>
							</g>
							<polyline fill="none" stroke="#000000" stroke-linejoin="round" stroke-miterlimit="10" points="557.135,431.744 
								610.742,451.006 634.602,385.667 							"/>
						</g>
						
							<line fill="none" stroke="#000000" stroke-linejoin="round" stroke-miterlimit="10" x1="610.742" y1="451.006" x2="634.602" y2="489.022"/>
						
							<line fill="none" stroke="#000000" stroke-linejoin="round" stroke-miterlimit="10" x1="571.686" y1="10.988" x2="634.602" y2="0.241"/>
						<polyline fill="none" stroke="#000000" stroke-linejoin="round" stroke-miterlimit="10" points="0,148.013 38.525,115.629 
							0.001,104.342 						"/>
					</g>
				</g>
				
					<line fill="none" stroke="#000000" stroke-linejoin="round" stroke-miterlimit="10" x1="229.199" y1="448.206" x2="262.916" y2="489.022"/>
			</g>
			<polyline fill="none" stroke="#000000" stroke-linejoin="round" stroke-miterlimit="10" points="58.557,426.158 0,489.022 
				111.232,462.335 			"/>
		</g>
		
			<line fill="none" stroke="#000000" stroke-linejoin="round" stroke-miterlimit="10" x1="123.039" y1="380.661" x2="88.742" y2="448.205"/>
	</g>
	
		<line fill="none" stroke="#000000" stroke-linejoin="round" stroke-miterlimit="10" x1="577.082" y1="181.874" x2="634.602" y2="148.013"/>
</g>
</svg>
